<svg width="1259" height="1003" viewBox="0 0 1259 1003" fill="none" xmlns="http://www.w3.org/2000/svg">
<path d="M1.62404 103.719C7.16413 103.701 12.7027 103.78 18.2399 103.953C62.1796 105.55 74.9522 128.33 102.907 157.458L176.073 233.252C259.325 318.765 348.343 406.568 429.238 493.285C465.449 452.52 509.561 414.273 546.92 373.978C560.135 359.725 577.641 340.982 591.884 328.272C599.7 326.356 612.493 311.668 618.26 305.448C619.578 306.652 646.886 359.655 648.813 364.601L647.719 364.622C642.517 359.284 642.456 357.138 636.965 357.014C644.232 372.359 654.79 385.434 662.135 400.89C658.468 406.275 656.202 405.711 653.725 411.784L654.449 413.628C635.718 435.512 598.485 470.848 577.178 492.662L500.264 571.179C482.462 589.389 448.837 626.3 429.075 638.059C405.694 620.55 347.78 558.867 325.063 535.628L182.698 390.262C156.343 363.214 132.144 337.088 105.119 310.33C105.857 335.644 104.875 364.451 104.905 390.095L105.128 560.767L104.781 1001.18L0.742893 1001.06C1.97088 702.978 -2.12989 401.455 1.62404 103.719Z" fill="#001930"/>
<path d="M666.684 252.877C681.112 234.786 710.684 199.858 733.322 199.36C754.769 198.89 785.712 197.963 807.3 198.845C832.782 199.887 885.48 196.634 908.476 201.237C925.013 219.113 927.112 229.454 908.223 247.571C879.094 252.09 844.128 248.15 814.307 248.97C792.258 249.577 767.077 245.156 752.115 266.703C747.418 273.476 743.394 279.254 743.208 287.709C741.407 330.723 742.284 374.982 742.242 418.02L742.22 672.004L742 837.205C742.068 860.869 741.675 884.754 742.735 908.372C743.789 931.862 748.993 952.514 769.173 966.993C782.522 976.392 799.045 980.136 815.142 977.406C832.971 974.369 847.556 964.252 857.837 949.548C869.417 932.984 868.822 915.944 868.724 896.823C854.993 896.793 794.552 898.98 786.63 895.388C784.594 890.583 783.61 875.923 790.153 875.376C814.435 873.345 843.284 873.436 867.43 873.536C867.68 858.164 868.176 842.137 867.904 826.817C862.039 826.921 783.739 834.481 806.381 805.888C811.412 799.533 854.528 801.326 867.743 801.434C868.087 786.097 868.222 770.757 868.149 755.417C853.29 755.72 795.552 758.663 786.855 753.425C763.894 719.527 852.793 730.492 868.221 731.607C868.163 714.43 868.306 695.273 867.145 678.277C851.953 678.326 766.685 688.307 789.637 658.511C796.613 649.455 853.684 653.272 867.366 653.55C867.674 637.777 868.276 621.241 867.645 605.535C847.823 606.083 771.614 618.051 785.32 584.442C792.322 578.634 854.439 581.195 867.969 581.179L868.319 390.381C868.322 361.87 868.103 332.751 868.203 304.207C868.222 298.627 871.83 292.537 877.174 290.303C897.774 291.902 890.555 347.212 890.496 363.865L890.421 480.622L890.57 907.259C1010.72 904.651 1138.15 906.369 1258.4 907.626C1258.62 941.196 1259.43 968.497 1258.06 1001.83C1221.95 1003.1 1181.97 1002.34 1145.55 1002.32L959.859 1002.35C921.679 1002.69 883.485 1002.7 845.301 1002.37C828.039 1002.17 809.529 1003.09 792.468 1000.58C775.806 998.13 760.433 991.704 747.989 980.133C725.731 959.433 720.85 935.035 719.885 905.784C717.988 848.209 724.335 359.685 717.662 349.199C710.919 357.098 660.734 409.676 654.454 413.634L653.73 411.789C656.207 405.716 658.473 406.28 662.14 400.895C654.795 385.439 644.237 372.364 636.97 357.019C642.461 357.143 642.522 359.289 647.724 364.627L648.818 364.606C646.891 359.66 619.583 306.657 618.264 305.453C612.498 311.673 599.705 326.361 591.889 328.277C594.257 325.238 597.392 322.188 600.13 319.456C622.267 297.39 643.652 273.961 666.684 252.877Z" fill="#0071D4"/>
<path d="M573.702 346.325L621.333 298.694L674.918 393.957C664.995 405.864 645.149 423.726 633.241 435.634C626.505 442.37 637.21 421.741 645.149 417.772C639.195 393.957 621.333 376.095 621.333 376.095C621.333 376.095 631.256 378.08 633.241 382.049C623.318 360.218 603.472 317.747 603.472 322.51C603.472 327.273 583.625 340.372 573.702 346.325Z" fill="#004084"/>
<path d="M795.001 58.6453C812.858 54.8557 831.376 60.954 843.49 74.6122C855.603 88.2704 859.445 107.384 853.549 124.662C847.654 141.939 832.93 154.719 814.994 158.124C787.673 163.312 761.268 145.539 755.787 118.275C750.308 91.0107 767.796 64.4161 795.001 58.6453Z" fill="#0071D4"/>
<path d="M865.851 1.72673C879.746 -3.50227 895.247 3.54565 900.437 17.4554C905.629 31.3652 898.538 46.8453 884.615 51.9984C870.745 57.1322 855.338 50.0738 850.166 36.2191C844.995 22.3644 852.01 6.93639 865.851 1.72673Z" fill="#0071D4"/>
</svg>
